<svg width="206" height="206" viewBox="0 0 206 206" fill="none" xmlns="http://www.w3.org/2000/svg">
<circle cx="103" cy="103" r="103" fill="#FF892E"/>
<circle cx="103" cy="103" r="96" fill="white"/>
<path d="M98.3361 73.3313C98.3361 65.4563 95.1583 55.8313 80.4611 55.8313C73.3111 55.8313 70.5306 58.0188 66.9556 60.6438C62.9833 63.7063 57.8194 67.6438 47.4917 67.6438C40.7389 67.6438 35.9722 66.3313 32 64.5813C36.3694 76.3938 47.0944 91.2688 74.5028 91.2688C88.8028 90.8313 98.3361 81.6438 98.3361 73.3313Z" fill="#FF892E"/>
<path d="M130.114 137.644C116.211 137.644 107.869 132.831 103.5 128.894C99.1306 132.831 90.7889 137.644 76.8861 137.644C55.0389 137.644 47.4917 105.706 45.5056 96.0813C43.9167 95.2063 42.725 94.7688 41.1361 93.8938L43.1222 114.019C46.6972 148.144 84.8306 170.894 103.5 172.644C120.978 170.456 159.111 148.144 163.083 114.019L165.069 93.4563C163.878 94.3313 162.289 95.2063 160.7 96.0813C159.508 106.144 151.961 137.644 130.114 137.644Z" fill="#FF892E"/>
<path d="M140.442 60.6438C136.867 58.0188 133.689 55.8313 126.936 55.8313C112.239 55.8313 109.061 65.4563 109.061 73.3313C109.061 81.6438 118.594 90.8313 132.497 90.8313C159.906 90.8313 170.631 75.9563 175 64.1438C171.028 65.8938 166.261 67.2063 159.906 67.2063C149.578 67.6438 144.414 63.7063 140.442 60.6438Z" fill="#FF892E"/>
</svg>
