<svg width="300" height="338" viewBox="0 0 300 338" fill="none" xmlns="http://www.w3.org/2000/svg">
<path fill-rule="evenodd" clip-rule="evenodd" d="M195.114 62.8822C208.698 62.8886 218.172 66.1136 227.159 72.3434C233.226 76.549 238.842 81.3708 243.876 86.8458L259.082 102.85C268.135 113.035 283.918 128.153 299.11 123.951C298.437 122.213 297.534 121.997 296.153 120.64L284.365 106.884C278.734 99.6454 266.268 79.1935 261.885 71.1681C260.552 68.7275 258.442 65.4068 256.86 62.9605L248.948 51.965C228.71 24.6898 196.994 16.5838 164.357 28.6921C155.601 31.9412 148.496 36.201 141.668 40.5186C134.806 44.8575 122.477 57.2364 118.018 64.1578C115.668 67.8053 111.003 73.0784 109.259 76.7914C112.374 70.9901 115.649 64.5903 119.542 59.0788C124.285 52.364 123.616 53.709 128.009 48.1621C140.498 32.3917 162.351 19.583 182.481 15.1229C189.17 13.6411 193.719 14.0857 200.049 13.2816C196.267 10.9106 185.975 7.99347 180.634 6.70879C173.324 4.95057 166.147 3.69726 158.414 2.47104C148.438 0.88898 144.797 1.79477 135.663 4.69932C128.533 6.96648 123.036 9.60208 117.645 13.6175L112.142 18.0309C111.514 18.6018 111.004 18.9493 110.315 19.5543C99.5436 29.0034 88.6813 46.2181 83.7029 59.1531C81.491 64.8995 79.515 75.8612 77.4597 79.9172C77.9212 52.2302 92.7231 16.9905 116.966 2.05594L119.091 0.280823C108.743 0.57605 110.456 1.5655 102.38 3.06872C86.9467 5.94083 73.4389 11.9899 64.197 24.0409C51.95 40.0108 44.6758 55.9067 42.8132 76.4396L41.8171 81.1147C41.0282 62.3693 43.0042 46.3519 50.309 29.5212C52.5914 24.2624 55.1409 20.7585 57.4617 16.5149C49.2458 19.1311 36.0421 29.9798 30.1126 36.7279C28.8732 38.1386 27.9218 39.5311 26.5044 41.1686C18.5322 50.3794 17.4939 58.1921 21.6022 70.345C24.5164 78.9661 26.1792 86.6986 27.5349 96.218C25.493 93.8344 21.5268 84.6762 19.3822 81.0922C17.9198 78.6481 11.473 67.3321 8.36924 68.4358C4.58036 71.502 2.12307 86.927 1.55166 93.2239C-0.237673 112.95 2.05898 133.367 4.36074 152.796C4.84769 156.906 7.4865 179.139 8.30943 181.117C9.55684 181.558 17.4076 180.096 18.6239 179.057C20.3682 177.106 24.2123 164.922 25.087 161.386C28.8193 146.295 25.9008 114.847 43.2637 106.206C50.412 102.649 56.6326 105.843 62.7986 108.14C102.628 122.974 148.593 124.755 189.751 113.697C195.521 112.147 203.518 108.752 209.7 109.329C231.074 111.326 228.384 149.352 229.718 162.443C230.553 170.631 233.093 175.737 234.547 182.356L244.55 184.786L245.124 187.182C245.481 186.846 245.455 187.047 245.743 186.243C246.787 183.336 247.011 179.798 247.635 176.848C250.566 162.974 254.208 149.434 258.931 136.131C260.646 131.302 259.631 130.284 258.17 125.548C255.19 115.897 251.27 107.111 245.847 99.0593C244.178 96.5819 242.306 93.7738 240.107 91.571C235.644 87.0994 231.556 82.9869 226.192 79.4729C208.899 68.1437 184.714 64.4688 164.046 70.9614C158.093 72.8317 151.693 76.4426 146.299 78.3673C149.967 74.7742 160.631 69.8427 167.591 67.394C175.903 64.4699 185.463 62.8774 195.114 62.8822Z" fill="#FF6600"/>
<path fill-rule="evenodd" clip-rule="evenodd" d="M233.939 202.751C232.174 201.11 232.452 197.421 233.881 195.447C235.311 196.998 235.063 201.034 233.939 202.751ZM17.9501 193.437C18.7296 195.038 18.9977 198.471 18.4834 199.818C17.7972 201.614 18.5703 199.875 17.8249 200.704C17.7506 200.609 16.781 200.528 16.7139 197.169C16.6359 193.244 17.8176 193.546 17.9501 193.437ZM11.9074 186.587C11.0142 190.548 11.2368 204.185 13.0146 207.64C14.3813 210.295 17.4629 211.133 18.2528 213.761C20.4889 221.2 20.5522 231.785 25.5332 241.031C26.7747 243.336 28.9258 246.342 30.2821 247.633C39.6299 256.537 66.6197 256.733 79.2437 255.328C92.8049 253.819 100.016 249.37 107.032 237.244C114.99 223.488 115.307 208.411 119.37 203.702C123.084 199.399 129.617 197.353 136.38 201.051C144.777 205.644 140.083 217.647 154.402 240.298C156.211 243.16 162.91 249.696 166.273 251.584C177.975 258.151 204.09 256.072 216.161 251.363C233.69 244.526 232.795 221.081 234.783 212.724C235.645 209.103 238.136 208.039 239.725 205.857C241.806 202.998 241.108 192.461 240.504 190.53C239.93 188.695 239.127 188.89 237.012 188.394C209.315 181.899 182.507 181.055 154.525 186.836C148.209 188.14 141.942 190.093 135.361 190.819C121.641 192.332 108.731 187.378 95.7451 184.969C82.0539 182.428 67.5655 181.298 53.2825 181.483C40.9741 181.643 28.8008 182.962 16.7874 185.268C15.9221 185.434 15.2453 185.53 14.4194 185.69C14.1204 185.748 13.4683 185.865 13.2063 185.948L11.9074 186.587Z" fill="#FF6600"/>
<path fill-rule="evenodd" clip-rule="evenodd" d="M47.139 330.606L48.7068 331.285L47.4103 330.891C45.7945 330.193 38.842 326.768 36.7151 326.323C38.0794 329.242 42.1826 333.243 45.0657 334.946C56.7702 341.86 65.5109 335.735 74.9027 329.415L94.2904 315.226C95.841 314.136 97.3783 313.094 99.0679 311.98C101.821 310.164 106.423 307.641 110.036 306.381C117.411 303.81 117.715 306.099 123.607 307.488C135.724 310.344 134.942 298.332 149.468 307.567L168.632 321.519C174.45 325.823 181.708 330.491 190.528 332.76C201.617 335.613 209.536 332.844 217.01 328.289C215.85 327.518 218.398 327.74 215.17 327.82L210.268 328.622C208.31 328.905 205.889 329.408 203.874 329.343C206.835 328.867 213.738 326.38 217.379 325.359C222.014 324.06 224.767 320.544 226.293 316.081C222.618 317.95 219.328 322.083 210.741 320.617C198.234 318.481 185.733 304.786 176.561 296.551C173.042 293.392 167.189 287.596 163.162 284.886C162.227 284.256 161.297 283.667 160.334 282.973C139.458 267.908 131.472 287.337 127.088 286.991C123.566 286.712 115.475 271.816 99.3956 279.657C94.6577 281.968 91.3928 284.544 87.9563 287.6L82.8486 292.427C74.5144 300.454 68.0173 309.043 57.6864 315.518C41.7307 325.518 34.7689 309.308 32.4805 308.152C31.0165 310.908 31.8048 320.38 35.926 323.271C38.5122 325.085 46.0827 329.263 47.139 330.606Z" fill="#FF6600"/>
</svg>
